<?xml version="1.0" encoding="UTF-8"?>
<svg width="18px" height="21px" viewBox="0 0 18 21" version="1.1" xmlns="http://www.w3.org/2000/svg" xmlns:xlink="http://www.w3.org/1999/xlink">
    <title>ico</title>
    <defs>
        <polygon id="path-1" points="0 29 220.966736 29 229.712972 29 375 29 375 80 0 80"></polygon>
        <filter x="-8.3%" y="-64.7%" width="116.5%" height="221.6%" filterUnits="objectBoundingBox" id="filter-2">
            <feOffset dx="0" dy="-2" in="SourceAlpha" result="shadowOffsetOuter1"></feOffset>
            <feGaussianBlur stdDeviation="10" in="shadowOffsetOuter1" result="shadowBlurOuter1"></feGaussianBlur>
            <feColorMatrix values="0 0 0 0 0.0773607337   0 0 0 0 0   0 0 0 0 0  0 0 0 0.2 0" type="matrix" in="shadowBlurOuter1"></feColorMatrix>
        </filter>
    </defs>
    <g id="Recipe-app" stroke="none" stroke-width="1" fill="none" fill-rule="evenodd">
        <g id="Recipe-app_8" transform="translate(-102.000000, -777.000000)">
            <rect fill="#FFFFFF" x="0" y="0" width="375" height="812"></rect>
            <g id="Tap_bar" transform="translate(0.000000, 732.000000)" fill-rule="nonzero">
                <g id="Rectangle">
                    <use fill="black" fill-opacity="1" filter="url(#filter-2)" xlink:href="#path-1"></use>
                    <use fill="#FFFFFF" xlink:href="#path-1"></use>
                </g>
                <g id="ico" transform="translate(102.506958, 45.000000)" fill="#FC8B56">
                    <path d="M10.9661704,8.07209753 C10.7814395,8.07209753 10.5991199,8.09641128 10.4232973,8.14383314 C10.0601986,7.51602938 9.38658049,7.11314454 8.62501763,7.11314454 C7.8633208,7.11314454 7.18963572,7.5159624 6.82640306,8.14383314 C6.65058049,8.09641128 6.46826087,8.07209753 6.28359694,8.07209753 C5.13683196,8.07209753 4.20386722,9.00506228 4.20386722,10.1518273 C4.20386722,11.2985922 5.13683196,12.23149 6.28359694,12.23149 C6.32713396,12.23149 6.37047004,12.2301504 6.41353819,12.2275382 L6.41353819,14.5343972 C6.41353819,14.8303149 6.65346063,15.0702374 6.94937838,15.0702374 L10.300389,15.0702374 C10.5963067,15.0702374 10.8362291,14.8303149 10.8362291,14.5343972 L10.8362291,12.2275382 C10.8792973,12.2302174 10.9226334,12.23149 10.9661704,12.23149 C12.1128684,12.23149 13.0457662,11.2985253 13.0457662,10.1518273 C13.0457662,9.0049953 12.1128684,8.07209753 10.9661704,8.07209753 Z M10.9661704,11.1598096 C10.8138578,11.1598096 10.6677074,11.1267885 10.531738,11.0617509 C10.3656945,10.9822456 10.1704477,10.9936322 10.0147861,11.091691 C9.85905758,11.1898167 9.76454877,11.3610176 9.76454877,11.5450787 L9.76454877,13.998557 L7.48521857,13.998557 L7.48521857,11.5450787 C7.48521857,11.3610176 7.39077673,11.1898837 7.23504818,11.0917579 C7.0793866,10.9935652 6.88413984,10.9821786 6.71816334,11.0616839 C6.58199295,11.1267885 6.43577556,11.1598096 6.28352996,11.1598096 C5.72772973,11.1598096 5.27548061,10.7076275 5.27548061,10.1518273 C5.27548061,9.59602703 5.72766275,9.14377791 6.28352996,9.14377791 C6.47763807,9.14377791 6.6659859,9.19903643 6.8282785,9.30352526 C6.97543361,9.39836898 7.15962867,9.41518096 7.32151939,9.34887074 C7.48347709,9.28256052 7.60283549,9.14129965 7.64121504,8.97056757 C7.74356052,8.51530435 8.15729612,8.18489189 8.62501763,8.18489189 C9.09253819,8.18489189 9.50607286,8.51530435 9.60835135,8.97050059 C9.6467309,9.14129965 9.76602233,9.28256052 9.92798002,9.34893772 C10.0898707,9.41524794 10.2741328,9.39836898 10.4212209,9.30359224 C10.5835135,9.19903643 10.7719953,9.14384489 10.9661704,9.14384489 C11.5219036,9.14384489 11.9740858,9.59602703 11.9740858,10.1518942 C11.9740858,10.7077615 11.5219036,11.1598096 10.9661704,11.1598096 Z M14.9773361,2.96651592e-13 L2.27223032,2.96651592e-13 C1.01936898,2.96651592e-13 3.48165941e-13,1.019302 3.48165941e-13,2.27216334 L3.48165941e-13,18.6950623 C3.48165941e-13,19.9479906 1.019302,20.9672256 2.27223032,20.9672256 L14.9773361,20.9672256 C16.2301974,20.9672256 17.2494324,19.9479236 17.2494324,18.6950623 L17.2494324,2.27216334 C17.2494324,1.019302 16.2301304,2.96651592e-13 14.9773361,2.96651592e-13 Z M4.50286604,1.07168038 L6.51896475,1.07168038 L4.50286604,1.07168038 Z M16.1777521,18.4368543 L16.1777521,18.6949953 C16.1777521,19.3569589 15.6392327,19.8954783 14.9773361,19.8954783 L2.27223032,19.8954783 C1.61026675,19.8954783 1.07168038,19.3568919 1.07168038,18.6949953 L1.07168038,18.4368543 L1.07168038,17.3651739 L1.07168038,2.27216334 C1.07168038,1.61019976 1.61026675,1.07168038 2.27223032,1.07168038 L3.43118566,1.07168038 L7.59064512,1.07168038 L14.9772691,1.07168038 C15.6391657,1.07168038 16.1777521,1.61019976 16.1777521,2.27216334 L16.1777521,17.3651739 L16.1777521,18.4368543 Z" id="Shape"></path>
                </g>
            </g>
        </g>
    </g>
</svg>