<?xml version="1.0" encoding="UTF-8"?>
<svg width="22px" height="20px" viewBox="0 0 22 20" version="1.1" xmlns="http://www.w3.org/2000/svg" xmlns:xlink="http://www.w3.org/1999/xlink">
    <title>ico</title>
    <defs>
        <polygon id="path-1" points="0 29 220.966736 29 229.712972 29 375 29 375 80 0 80"></polygon>
        <filter x="-8.3%" y="-64.7%" width="116.5%" height="221.6%" filterUnits="objectBoundingBox" id="filter-2">
            <feOffset dx="0" dy="-2" in="SourceAlpha" result="shadowOffsetOuter1"></feOffset>
            <feGaussianBlur stdDeviation="10" in="shadowOffsetOuter1" result="shadowBlurOuter1"></feGaussianBlur>
            <feColorMatrix values="0 0 0 0 0.0773607337   0 0 0 0 0   0 0 0 0 0  0 0 0 0.2 0" type="matrix" in="shadowBlurOuter1"></feColorMatrix>
        </filter>
    </defs>
    <g id="Recipe-app" stroke="none" stroke-width="1" fill="none" fill-rule="evenodd">
        <g id="Recipe-app_8" transform="translate(-23.000000, -777.000000)">
            <rect fill="#FFFFFF" x="0" y="0" width="375" height="812"></rect>
            <g id="Tap_bar" transform="translate(0.000000, 732.000000)" fill-rule="nonzero">
                <g id="Rectangle">
                    <use fill="black" fill-opacity="1" filter="url(#filter-2)" xlink:href="#path-1"></use>
                    <use fill="#FFFFFF" xlink:href="#path-1"></use>
                </g>
                <g id="ico" transform="translate(23.000000, 45.000000)" fill="#FC8B56">
                    <path d="M21.6295893,7.69726074 L11.2666301,0.109715957 C11.0667972,-0.0365719855 10.7953148,-0.0365719855 10.5955673,0.109715957 L0.232522602,7.69726074 C-0.0205990909,7.88261858 -0.075595842,8.2380479 0.109761997,8.49116959 C0.295119836,8.74429128 0.650591849,8.79920264 0.903670843,8.6139302 L10.931056,1.27203472 L20.9584411,8.6138875 C21.0595531,8.68797085 21.1770617,8.72365529 21.2935455,8.72365529 C21.468442,8.72365529 21.6410328,8.64313655 21.7523072,8.49112689 C21.9377078,8.2380479 21.882711,7.88261858 21.6295893,7.69726074 Z" id="Path"></path>
                    <path d="M18.8836374,8.74249791 C18.5699681,8.74249791 18.3156081,8.99681519 18.3156081,9.31052724 L18.3156081,18.35207 L13.7714588,18.35207 L13.7714588,13.416624 C13.7714588,11.8504121 12.4972251,10.5762638 10.9310987,10.5762638 C9.36497224,10.5762638 8.09073851,11.8504975 8.09073851,13.416624 L8.09073851,18.3521127 L3.54654655,18.3521127 L3.54654655,9.31056994 C3.54654655,8.99685789 3.29218658,8.74249791 2.97851722,8.74249791 C2.66484786,8.74249791 2.41048789,8.99685789 2.41048789,9.31056994 L2.41048789,18.9201847 C2.41048789,19.2338968 2.66484786,19.4882141 2.97851722,19.4882141 L8.65876784,19.4882141 C8.95749243,19.4882141 9.20194616,19.2574241 9.22457681,18.9644212 C9.22594319,18.9511417 9.22679718,18.936624 9.22679718,18.9201847 L9.22679718,13.4166667 C9.22679718,12.4768969 9.99132888,11.7123652 10.9310987,11.7123652 C11.8708685,11.7123652 12.6354002,12.4769396 12.6354002,13.4166667 L12.6354002,18.9201847 C12.6354002,18.9365386 12.6362542,18.9508001 12.6376205,18.9639088 C12.659995,19.2571252 12.9045341,19.4882141 13.2034295,19.4882141 L18.8836801,19.4882141 C19.1973922,19.4882141 19.4517095,19.2338968 19.4517095,18.9201847 L19.4517095,9.31056994 C19.4517095,8.99681519 19.1973495,8.74249791 18.8836374,8.74249791 Z" id="Path"></path>
                </g>
            </g>
        </g>
    </g>
</svg>