<?xml version="1.0" encoding="UTF-8"?>
<svg width="21px" height="21px" viewBox="0 0 21 21" version="1.1" xmlns="http://www.w3.org/2000/svg" xmlns:xlink="http://www.w3.org/1999/xlink">
    <title>ico</title>
    <defs>
        <polygon id="path-1" points="0 29 220.966736 29 229.712972 29 375 29 375 80 0 80"></polygon>
        <filter x="-8.3%" y="-64.7%" width="116.5%" height="221.6%" filterUnits="objectBoundingBox" id="filter-2">
            <feOffset dx="0" dy="-2" in="SourceAlpha" result="shadowOffsetOuter1"></feOffset>
            <feGaussianBlur stdDeviation="10" in="shadowOffsetOuter1" result="shadowBlurOuter1"></feGaussianBlur>
            <feColorMatrix values="0 0 0 0 0.0773607337   0 0 0 0 0   0 0 0 0 0  0 0 0 0.2 0" type="matrix" in="shadowBlurOuter1"></feColorMatrix>
        </filter>
    </defs>
    <g id="Recipe-app" stroke="none" stroke-width="1" fill="none" fill-rule="evenodd">
        <g id="Recipe-app_8" transform="translate(-329.000000, -776.000000)">
            <rect fill="#FFFFFF" x="0" y="0" width="375" height="812"></rect>
            <g id="Tap_bar" transform="translate(0.000000, 732.000000)" fill-rule="nonzero">
                <g id="Rectangle">
                    <use fill="black" fill-opacity="1" filter="url(#filter-2)" xlink:href="#path-1"></use>
                    <use fill="#FFFFFF" xlink:href="#path-1"></use>
                </g>
                <g id="ico" transform="translate(329.000000, 44.000000)" fill="#FC8B56">
                    <path d="M19.9127349,8.29039666 L18.439666,8.04050104 C18.2862213,7.54509395 18.0889353,7.06722338 17.8478079,6.61127349 L18.7158664,5.39686848 C19.0841336,4.87954071 19.0271399,4.1736952 18.5755741,3.72651357 L17.2691023,2.42004175 C17.0235908,2.17453027 16.6991649,2.03862213 16.3528184,2.03862213 C16.0810021,2.03862213 15.8223382,2.12192067 15.6031315,2.27974948 L14.3843424,3.14780793 C13.9108559,2.89791232 13.4154489,2.69185804 12.9025052,2.53841336 L12.6569937,1.082881 C12.5517745,0.455949896 12.0125261,-3.0375702e-13 11.3768267,-3.0375702e-13 L9.53110647,-3.0375702e-13 C8.8954071,-3.0375702e-13 8.35615866,0.455949896 8.25093946,1.082881 L7.99665971,2.57348643 C7.50563674,2.72693111 7.02776618,2.92860125 6.57181628,3.17411273 L5.36617954,2.30605428 C5.14697286,2.14822547 4.88392484,2.06492693 4.61210856,2.06492693 C4.265762,2.06492693 3.93695198,2.20083507 3.69582463,2.44634656 L2.38496868,3.75281837 C1.93778706,4.2 1.87640919,4.90584551 2.24467641,5.42317328 L3.12150313,6.65511482 C2.88037578,7.11544885 2.6874739,7.59331942 2.53841336,8.08872651 L1.082881,8.334238 C0.455949896,8.4394572 -3.19744231e-14,8.97870564 -3.19744231e-14,9.61440501 L-3.19744231e-14,11.4601253 C-3.19744231e-14,12.0958246 0.455949896,12.6350731 1.082881,12.7402923 L2.57348643,12.994572 C2.72693111,13.485595 2.92860125,13.9634656 3.17411273,14.4194154 L2.31043841,15.6206681 C1.94217119,16.1379958 1.99916493,16.8438413 2.45073069,17.291023 L3.75720251,18.5974948 C4.00271399,18.8430063 4.32713987,18.9789144 4.67348643,18.9789144 C4.94530271,18.9789144 5.2039666,18.8956159 5.42317328,18.7377871 L6.65511482,17.8609603 C7.09791232,18.0933194 7.56263048,18.2818372 8.04050104,18.4308977 L8.28601253,19.9039666 C8.39123173,20.5308977 8.93048017,20.9868476 9.56617954,20.9868476 L11.4162839,20.9868476 C12.0519833,20.9868476 12.5912317,20.5308977 12.6964509,19.9039666 L12.9463466,18.4308977 C13.4417537,18.277453 13.9196242,18.080167 14.3755741,17.8390397 L15.5899791,18.7070981 C15.8091858,18.8649269 16.0722338,18.9482255 16.3440501,18.9482255 L16.3440501,18.9482255 C16.6903967,18.9482255 17.0148225,18.8123173 17.260334,18.5668058 L18.5668058,17.260334 C19.0139875,16.8131524 19.0753653,16.1073069 18.7070981,15.5899791 L17.8390397,14.37119 C18.080167,13.9108559 18.2818372,13.4329854 18.4308977,12.9419624 L19.9039666,12.6964509 C20.5308977,12.5912317 20.9869719,12.0519833 20.9869719,11.4162839 L20.9869719,9.57056367 C20.9956159,8.9348643 20.539666,8.39561587 19.9127349,8.29039666 Z M19.8118998,11.4162839 C19.8118998,11.4732777 19.7724426,11.5215031 19.7154489,11.5302714 L17.8741127,11.8371608 C17.6417537,11.876618 17.45762,12.0475992 17.4006263,12.27119 C17.2340292,12.9156576 16.9797495,13.5338205 16.6377871,14.108142 C16.5194154,14.3098121 16.5281837,14.5597077 16.6640919,14.7526096 L17.7469729,16.2782881 C17.7776618,16.3221294 17.7732777,16.3878914 17.7338205,16.4273486 L16.4273486,17.7338205 C16.3966597,17.7645094 16.3659708,17.7688935 16.3440501,17.7688935 C16.3177453,17.7688935 16.2958246,17.7601253 16.2782881,17.7469729 L14.7569937,16.6640919 C14.568476,16.5281837 14.3141962,16.5194154 14.1125261,16.6377871 C13.5382046,16.9797495 12.9200418,17.2340292 12.2755741,17.4006263 C12.0475992,17.45762 11.876618,17.6461378 11.8415449,17.8741127 L11.5302714,19.7154489 C11.5215031,19.7724426 11.4732777,19.8118998 11.4162839,19.8118998 L9.57056367,19.8118998 C9.51356994,19.8118998 9.46534447,19.7724426 9.4565762,19.7154489 L9.14968685,17.8741127 C9.11022965,17.6417537 8.93924843,17.45762 8.71565762,17.4006263 C8.08872651,17.2384134 7.48371608,16.9885177 6.91816284,16.6640919 C6.82609603,16.6114823 6.72087683,16.5851775 6.62004175,16.5851775 C6.50167015,16.5851775 6.37891441,16.6202505 6.27807933,16.6947808 L4.74363257,17.7864301 C4.7217119,17.7995825 4.69979123,17.8083507 4.67787056,17.8083507 C4.66033403,17.8083507 4.62526096,17.8039666 4.59457203,17.7732777 L3.28810021,16.4668058 C3.24864301,16.4273486 3.24425887,16.3659708 3.27494781,16.3177453 L4.35344468,14.8052192 C4.48935282,14.6123173 4.49812109,14.3580376 4.37974948,14.1563674 C4.03778706,13.5864301 3.77473904,12.9682672 3.60814196,12.3237996 C3.54676409,12.1002088 3.36263048,11.9292276 3.13465553,11.8897704 L1.28016701,11.5741127 C1.22317328,11.5653445 1.18371608,11.517119 1.18371608,11.4601253 L1.18371608,9.61440501 C1.18371608,9.55741127 1.22317328,9.5091858 1.28016701,9.50041754 L3.10835073,9.19352818 C3.34070981,9.15407098 3.52922756,8.98308977 3.58622129,8.75511482 C3.74843424,8.11064718 3.99832985,7.48810021 4.33590814,6.91377871 C4.45427975,6.71210856 4.44112735,6.46221294 4.30521921,6.2736952 L3.21356994,4.73924843 C3.182881,4.6954071 3.18726514,4.62964509 3.22672234,4.59018789 L4.53319415,3.28371608 C4.56388309,3.25302714 4.59457203,3.24864301 4.61649269,3.24864301 C4.64279749,3.24864301 4.66471816,3.25741127 4.6822547,3.27056367 L6.19478079,4.34906054 C6.38768267,4.48496868 6.64196242,4.49373695 6.84363257,4.37536534 C7.41356994,4.03340292 8.03173278,3.77035491 8.67620042,3.60375783 C8.89979123,3.54237996 9.07077244,3.35824635 9.11022965,3.1302714 L9.42588727,1.27578288 C9.43465553,1.21878914 9.482881,1.17933194 9.53987474,1.17933194 L11.385595,1.17933194 C11.4425887,1.17933194 11.4908142,1.21878914 11.4995825,1.27578288 L11.8064718,3.1039666 C11.845929,3.33632568 12.0169102,3.52484342 12.2448852,3.58183716 C12.9068894,3.74843424 13.5382046,4.00709812 14.1256785,4.35344468 C14.3273486,4.47181628 14.5772443,4.46304802 14.7701461,4.32713987 L16.2826722,3.23987474 C16.3045929,3.22672234 16.3265136,3.21795407 16.3484342,3.21795407 C16.3659708,3.21795407 16.4010438,3.2223382 16.4317328,3.25302714 L17.7382046,4.55949896 C17.7776618,4.59895616 17.7820459,4.66033403 17.751357,4.7085595 L16.668476,6.22985386 C16.5325678,6.41837161 16.5237996,6.67265136 16.6421712,6.8743215 C16.9841336,7.44864301 17.2384134,8.06680585 17.4050104,8.71127349 C17.4620042,8.93924843 17.6505219,9.11022965 17.8784969,9.14530271 L19.719833,9.4565762 C19.7768267,9.46534447 19.8162839,9.51356994 19.8162839,9.57056367 L19.8162839,11.4162839 L19.8118998,11.4162839 L19.8118998,11.4162839 Z" id="Shape"></path>
                    <path d="M10.4956159,5.96242171 C7.99665971,5.96242171 5.96680585,7.99227557 5.96680585,10.4912317 C5.96680585,12.9901879 7.99665971,15.0200418 10.4956159,15.0200418 C12.994572,15.0200418 15.0244259,12.9901879 15.0244259,10.4912317 C15.0244259,7.99227557 12.994572,5.96242171 10.4956159,5.96242171 Z M10.4956159,13.8363257 C8.64989562,13.8363257 7.15052192,12.336952 7.15052192,10.4912317 C7.15052192,8.64551148 8.64989562,7.14613779 10.4956159,7.14613779 C12.3413361,7.14613779 13.8407098,8.64551148 13.8407098,10.4912317 C13.8407098,12.336952 12.3413361,13.8363257 10.4956159,13.8363257 Z" id="Shape"></path>
                </g>
            </g>
        </g>
    </g>
</svg>