<?xml version="1.0" encoding="UTF-8"?>
<svg width="20px" height="19px" viewBox="0 0 20 19" version="1.1" xmlns="http://www.w3.org/2000/svg" xmlns:xlink="http://www.w3.org/1999/xlink">
    <title>ico_rate</title>
    <g id="Recipe-app" stroke="none" stroke-width="1" fill="none" fill-rule="evenodd">
        <g id="Recipe-app_8" transform="translate(-150.000000, -201.000000)" fill-rule="nonzero">
            <g id="Group" transform="translate(20.000000, 151.000000)">
                <g id="ico_rate" transform="translate(130.000000, 50.000000)">
                    <path d="M9.0668408,12.5051253 C8.99796818,12.2839859 8.79294557,12.1320475 8.50427707,12.088254 L6.15144145,11.7313907 L5.09914,9.50631578 C4.97006452,9.23334797 4.76823239,9.07670455 4.5454541,9.07670455 C4.32267581,9.07670455 4.12084368,9.23334797 3.9917682,9.50638817 L2.93960547,11.7313907 L0.586700497,12.088254 C0.297962625,12.1320475 0.0928706583,12.2839859 0.0240673999,12.5051253 C-0.0447358584,12.7262646 0.0355808395,12.9749831 0.244487507,13.1874362 L1.94709072,14.9194173 L1.54509104,17.365125 C1.49369667,17.6779051 1.58129599,17.8653126 1.66383214,17.9675217 C1.76065608,18.087393 1.90186922,18.1534091 2.06146226,18.1534091 C2.18152118,18.1534091 2.30920949,18.1167094 2.44105928,18.0443957 L4.5454541,16.8897657 L6.64998764,18.0444681 C6.78176807,18.1167818 6.90945637,18.1534091 7.02951529,18.1534091 L7.02958464,18.1534091 C7.18910833,18.1534091 7.33039082,18.087393 7.42721476,17.9675217 C7.50968157,17.865385 7.59735023,17.6779051 7.54588651,17.365125 L7.14395619,14.9194173 L8.84649004,13.1874362 C9.05532736,12.9749831 9.13564406,12.7262646 9.0668408,12.5051253 Z" id="Path" fill="#FC8B56"></path>
                    <path d="M19.9759317,12.5051253 C19.9070591,12.2839859 19.7020365,12.1320475 19.413368,12.088254 L17.0605324,11.7313907 L16.0082309,9.50631578 C15.8791554,9.23334797 15.6773233,9.07670455 15.454545,9.07670455 C15.2317667,9.07670455 15.0299346,9.23334797 14.9008591,9.50638817 L13.8486964,11.7313907 L11.4957914,12.088254 C11.2070535,12.1320475 11.0019616,12.2839859 10.9331583,12.5051253 C10.8643551,12.7262646 10.9446717,12.9749831 11.1535784,13.1874362 L12.8561816,14.9194173 L12.4541819,17.365125 C12.4027876,17.6779051 12.4903869,17.8653126 12.5729231,17.9675217 C12.669747,18.087393 12.8109601,18.1534091 12.9705532,18.1534091 C13.0906121,18.1534091 13.2183004,18.1167094 13.3501502,18.0443957 L15.454545,16.8897657 L17.5590785,18.0444681 C17.690859,18.1167818 17.8185473,18.1534091 17.9386062,18.1534091 L17.9386756,18.1534091 C18.0981992,18.1534091 18.2394817,18.087393 18.3363057,17.9675217 C18.4187725,17.865385 18.5064411,17.6779051 18.4549774,17.365125 L18.0530471,14.9194173 L19.755581,13.1874362 C19.9644183,12.9749831 20.044735,12.7262646 19.9759317,12.5051253 Z" id="Path-Copy-2" fill="#FEDCCC"></path>
                    <path d="M14.5213863,3.42842071 C14.4525136,3.20728131 14.247491,3.05534298 13.9588225,3.01154942 L11.6059869,2.65468616 L10.5536855,0.429611239 C10.42461,0.156643422 10.2227778,0 9.99999955,0 C9.77722126,0 9.57538913,0.156643422 9.44631365,0.42968362 L8.39415093,2.65468616 L6.04124595,3.01154942 C5.75250808,3.05534298 5.54741611,3.20728131 5.47861285,3.42842071 C5.4098096,3.64956009 5.49012629,3.8982786 5.69903296,4.11073165 L7.40163617,5.84271279 L6.99963649,8.28842042 C6.94824213,8.60120056 7.03584144,8.78860805 7.1183776,8.89081716 C7.21520154,9.01068846 7.35641468,9.07670455 7.51600771,9.07670455 C7.63606663,9.07670455 7.76375495,9.04000483 7.89560474,8.96769116 L9.99999955,7.81306119 L12.1045331,8.96776354 C12.2363135,9.04007721 12.3640018,9.07670455 12.4840607,9.07670455 L12.4841301,9.07670455 C12.6436538,9.07670455 12.7849363,9.01068846 12.8817602,8.89081716 C12.964227,8.78868045 13.0518957,8.60120056 13.000432,8.28842042 L12.5985016,5.84271279 L14.3010355,4.11073165 C14.5098728,3.8982786 14.5901895,3.64956009 14.5213863,3.42842071 Z" id="Path-Copy-3" fill="#FEDCCC"></path>
                </g>
            </g>
        </g>
    </g>
</svg>